<?xml version="1.0" encoding="UTF-8" standalone="no" ?>
<!DOCTYPE svg PUBLIC "-//W3C//DTD SVG 1.1//EN" "http://www.w3.org/Graphics/SVG/1.1/DTD/svg11.dtd">
<svg xmlns="http://www.w3.org/2000/svg" xmlns:xlink="http://www.w3.org/1999/xlink" version="1.1" width="1500" height="300" viewBox="0 0 1500 300" xml:space="preserve">
<desc>Created with Fabric.js 5.2.4</desc>
<defs>
</defs>
<g transform="matrix(1 0 0 1 750 150)" id="d1539256-6cae-4c62-af3f-f23ddef89e30"  >
<rect style="stroke: none; stroke-width: 1; stroke-dasharray: none; stroke-linecap: butt; stroke-dashoffset: 0; stroke-linejoin: miter; stroke-miterlimit: 4; fill: rgb(255,255,255); fill-rule: nonzero; opacity: 1; visibility: hidden;" vector-effect="non-scaling-stroke"  x="-750" y="-150" rx="0" ry="0" width="1500" height="300" />
</g>
<g transform="matrix(Infinity NaN NaN Infinity 0 0)" id="04205a32-ad8f-49dc-9454-69b4ac63d336"  >
</g>
<g transform="matrix(6.9 0 0 6.9 750 150)"  >
<g style=""   >
		<g transform="matrix(1 0 0 1 13.85 1.48)"  >
<path style="stroke: none; stroke-width: 1; stroke-dasharray: none; stroke-linecap: butt; stroke-dashoffset: 0; stroke-linejoin: miter; stroke-miterlimit: 4; fill: rgb(253,126,64); fill-rule: nonzero; opacity: 1;" vector-effect="non-scaling-stroke"  transform=" translate(-103.35, -19.48)" d="M 88.713 18.64 C 88.23534156860218 18.63669722553362 87.85033574475081 18.247666950561854 87.85199999999999 17.77 C 87.85103524745207 17.53938247646275 87.94167551398661 17.317817380489448 88.10399999999998 17.154 C 88.26471931435307 16.9903553352476 88.48463142428493 16.898424863062974 88.71399999999998 16.899 C 89.18799999999999 16.899 89.57499999999999 17.289 89.57499999999999 17.769000000000002 C 89.57499999999999 18.249000000000002 89.18799999999999 18.64 88.713 18.64 z M 89.207 22.99 C 88.29326549177615 22.983943751864427 87.55667321838003 22.239748522398035 87.55999999999999 21.325999999999997 C 87.55999999999999 20.881999999999998 87.72999999999999 20.462999999999997 88.04099999999998 20.148999999999997 C 88.34824471523348 19.8362985440344 88.76861673768893 19.660722922305574 89.20699999999998 19.662 C 90.11399999999998 19.662 90.85299999999998 20.409 90.85299999999998 21.326 C 90.85299999999998 22.243000000000002 90.11399999999998 22.990000000000002 89.20699999999998 22.990000000000002 z M 117.493 19.293 C 116.57926549177616 19.286943751864428 115.84267321838003 18.542748522398036 115.84599999999999 17.628999999999998 C 115.84599999999999 17.183999999999997 116.01599999999999 16.766 116.32799999999999 16.451999999999998 C 116.63500200918276 16.139546960040338 117.05496333442684 15.963992311633588 117.493 15.964999999999998 C 118.39999999999999 15.964999999999998 119.14 16.712 119.14 17.628999999999998 C 119.14 18.546 118.4 19.291999999999998 117.493 19.291999999999998 z" stroke-linecap="round" />
</g>
		<g transform="matrix(1 0 0 1 14.8 0.16)"  >
<path style="stroke: none; stroke-width: 1; stroke-dasharray: none; stroke-linecap: butt; stroke-dashoffset: 0; stroke-linejoin: miter; stroke-miterlimit: 4; fill: rgb(253,126,64); fill-rule: nonzero; opacity: 1;" vector-effect="non-scaling-stroke"  transform=" translate(-104.3, -18.16)" d="M 117.167 29.143 C 116.88323242293175 29.34073243223465 116.58158410329725 29.511476764103236 116.266 29.653000000000002 C 116.405 30.036 116.35600000000001 30.513 116.09 30.953000000000003 C 115.724 31.590000000000003 115.07900000000001 32.022000000000006 114.419 32.268 C 113.877 32.47 113.32 32.565 112.755 32.611000000000004 C 112.41799999999999 32.639 112.079 32.651 111.74 32.658 C 111.08944194840524 32.66342902812426 110.440042938708 32.60210806900425 109.80199999999999 32.475 L 109.8 32.475 C 109.195 32.765 108.46 33.069 107.636 33.255 C 107.16829106529285 33.371858879641216 106.68808624839512 33.43129681851597 106.20599999999999 33.432 C 106.04199999999999 33.432 105.87899999999999 33.424 105.719 33.411 C 104.57497061823264 33.31795351649281 103.49432038916464 32.84727968625421 102.64699999999999 32.073 C 102.46245194815107 31.909168326894925 102.28812474909095 31.73417320753189 102.12499999999999 31.549 L 102.11899999999999 31.554 C 101.76548238781537 31.876351629132294 101.3782453465683 32.15965491904898 100.96399999999998 32.399 C 100.24999999999999 32.799 99.46399999999998 33.062 98.67699999999998 33.249 C 97.89299999999997 33.429 97.09799999999998 33.562000000000005 96.26699999999998 33.529 C 95.42099999999998 33.496 94.01299999999998 33.204 93.70599999999999 32.254000000000005 L 93.69599999999998 32.254000000000005 C 93.43890004237015 32.25459917537879 93.18182368006035 32.24893082497767 92.92499999999998 32.237 C 92.24699999999999 32.193000000000005 91.57499999999999 31.875000000000004 91.14999999999998 31.313000000000002 C 90.87599999999998 30.977000000000004 90.62799999999997 30.538000000000004 90.67799999999998 30.056 C 90.72399999999999 29.623 90.98399999999998 29.293 91.32299999999998 29.086000000000002 L 91.31699999999998 29.085 C 91.31099999999998 29.082 91.30499999999998 29.082 91.29699999999998 29.079 C 90.31999999999998 28.746000000000002 89.78499999999998 27.954 89.76699999999998 26.871000000000002 C 89.76399999999998 25.047 91.48999999999998 24.639000000000003 92.91399999999999 25.104000000000003 C 93.34899999999999 25.252000000000002 93.85399999999998 25.624000000000002 94.19299999999998 25.954000000000004 C 94.46199999999999 25.724000000000004 96.33599999999998 24.337000000000003 95.01499999999999 21.832000000000004 L 95.02399999999999 21.832000000000004 C 93.06201289119153 19.729989690387544 91.97304581973162 16.960381055259553 91.97799999999998 14.085000000000003 C 91.9792246750476 13.292711357208168 92.06131677890853 12.502616741273293 92.22299999999998 11.727000000000006 C 92.29399999999998 11.386000000000005 92.37899999999999 11.051000000000004 92.47999999999999 10.720000000000004 L 92.51199999999999 10.623000000000005 C 92.60999999999999 10.313000000000004 92.72199999999998 10.009000000000004 92.84399999999998 9.713000000000005 C 92.84899999999998 9.702000000000005 92.85199999999998 9.689000000000005 92.85699999999999 9.679000000000004 C 92.89999999999999 9.577000000000004 92.94399999999999 9.475000000000003 92.99099999999999 9.375000000000004 C 92.99099999999999 9.374000000000004 92.99299999999998 9.370000000000003 92.99599999999998 9.368000000000004 C 94.66799999999998 5.678000000000004 98.25099999999998 3.0560000000000036 102.46599999999998 2.788000000000004 L 102.55999999999997 2.796000000000004 C 102.76199999999997 2.7850000000000037 102.96399999999997 2.779000000000004 103.16799999999998 2.779000000000004 C 107.06299999999997 2.779000000000004 110.49199999999998 4.789000000000003 112.49499999999998 7.8380000000000045 C 112.5068765503242 7.843582806026003 112.51855060849908 7.8495866073730935 112.52999999999997 7.856000000000004 C 112.86399999999998 8.367000000000004 113.15699999999997 8.909000000000004 113.40799999999997 9.476000000000004 L 113.40999999999997 9.476000000000004 C 113.69699999999997 10.128000000000004 113.92599999999997 10.813000000000004 114.08799999999997 11.526000000000003 L 114.08599999999997 11.526000000000003 C 114.25199999999997 12.249000000000004 114.34799999999997 12.998000000000003 114.36799999999997 13.769000000000004 C 114.36299999999997 13.784000000000004 114.35699999999997 13.799000000000003 114.35299999999997 13.816000000000004 C 114.35499999999996 13.905000000000005 114.35899999999997 13.996000000000004 114.35899999999997 14.086000000000004 C 114.3654476970915 16.888514136447412 113.33254092592497 19.593881888592094 111.45999999999997 21.679000000000002 C 110.79999999999997 22.871000000000002 110.51599999999996 24.229000000000003 111.90299999999996 25.726000000000003 C 111.93599999999996 25.763 112.63799999999996 23.785000000000004 114.21999999999997 23.206000000000003 C 116.12199999999997 22.508000000000003 118.32799999999997 22.959000000000003 118.78099999999998 25.168000000000003 C 119.03799999999998 26.732000000000003 118.37699999999998 28.270000000000003 117.16399999999997 29.144000000000002 L 117.16699999999997 29.143 z M 117.198 14.91 C 117.67299999999999 14.91 118.059 14.52 118.059 14.040000000000001 C 118.059 13.560000000000002 117.673 13.170000000000002 117.198 13.170000000000002 C 116.72018061264791 13.1733016829952 116.33488760037687 13.56217050048454 116.336 14.040000000000001 C 116.336 14.520000000000001 116.723 14.91 117.198 14.91 z" stroke-linecap="round" />
</g>
		<g transform="matrix(1 0 0 1 13.68 -0.91)"  >
<path style="stroke: none; stroke-width: 1; stroke-dasharray: none; stroke-linecap: butt; stroke-dashoffset: 0; stroke-linejoin: miter; stroke-miterlimit: 4; fill: rgb(30,1,74); fill-rule: nonzero; opacity: 1;" vector-effect="non-scaling-stroke"  transform=" translate(-103.18, -17.09)" d="M 104.88 16.935 C 104.265 17.714 103.092 17.953999999999997 102.22099999999999 17.503999999999998 C 101.94098792867516 17.366334145897998 101.69245492494666 17.172274129288077 101.49099999999999 16.933999999999997 C 101.39107927774165 16.81379742375746 101.40528078382846 16.635834800607235 101.52299999999998 16.532999999999998 C 101.60962944832104 16.457982152929457 101.73322745377224 16.443324697154797 101.83499999999998 16.496 C 102.06999999999998 16.607999999999997 102.29299999999998 16.708 102.51499999999999 16.776 C 103.18099999999998 16.996 103.89499999999998 16.821 104.49199999999999 16.480999999999998 C 104.77499999999999 16.319 105.079 16.677 104.88099999999999 16.935 L 104.87999999999998 16.935 z" stroke-linecap="round" />
</g>
		<g transform="matrix(1 0 0 1 20.65 2.3)"  >
<path style="stroke: none; stroke-width: 1; stroke-dasharray: none; stroke-linecap: butt; stroke-dashoffset: 0; stroke-linejoin: miter; stroke-miterlimit: 4; fill: rgb(219,109,55); fill-rule: nonzero; opacity: 1;" vector-effect="non-scaling-stroke"  transform=" translate(-110.15, -20.3)" d="M 116.255 29.652 C 116.395 30.037000000000003 116.345 30.514 116.082 30.953 C 115.713 31.59 115.068 32.022 114.41099999999999 32.268 C 113.54699999999998 32.59 112.64699999999999 32.638 111.74099999999999 32.658 C 111.08733509492218 32.66530975432554 110.4347230218572 32.603635064318375 109.79399999999998 32.474000000000004 C 108.67099999999998 32.248000000000005 107.59299999999999 31.809000000000005 106.65999999999998 31.138000000000005 C 105.61999999999998 30.370000000000005 104.86499999999998 29.531000000000006 104.32099999999998 28.610000000000007 C 105.07124711676308 27.185885967475823 105.5871893609126 25.65021494235014 105.84899999999999 24.061999999999998 C 105.892 23.803000000000004 105.89999999999999 23.558000000000003 105.88199999999999 23.326000000000004 C 106.03220662988444 21.972504647117646 105.24422511741017 20.689820679608566 103.969 20.212000000000003 C 104.449 19.817000000000004 105.112 19.572000000000003 105.84599999999999 19.572000000000003 C 106.701 19.572000000000003 107.457 19.906000000000002 107.94299999999998 20.422000000000004 C 108.53099999999998 20.925000000000004 108.86799999999998 21.717000000000006 108.71799999999999 22.692000000000004 C 108.62599999999999 23.537000000000003 108.386 24.409000000000002 108.41899999999998 25.245000000000005 C 108.49399999999999 26.048000000000005 108.90399999999998 26.864000000000004 109.42799999999998 27.472000000000005 C 110.72999999999999 28.932000000000006 112.85499999999999 29.038000000000004 114.68499999999999 28.924000000000007 C 114.76799999999999 28.918000000000006 114.92199999999998 28.909000000000006 115.01799999999999 28.904000000000007 C 115.66499999999999 28.877000000000006 116.08999999999999 29.201000000000008 116.25199999999998 29.654000000000007 L 116.25499999999998 29.652000000000008 z M 112.204 13.973 C 111.98948265870489 12.098850627940621 111.42396229492991 10.281857785481844 110.53699999999999 8.616999999999994 L 107.089 8.617 C 106.478 8.617 105.937 8.911000000000001 105.588 9.364 C 105.80406341128364 8.527135217873884 106.5567065682314 7.940788012133885 107.42099999999999 7.936000000000001 L 110.98899999999999 7.936000000000001 C 112.45599999999999 7.936000000000001 113.64699999999999 9.14 113.64699999999999 10.620000000000001 L 113.64699999999999 11.986 C 113.64699999999999 12.916 113.03999999999999 13.708 112.204 13.974 L 112.204 13.973 z" stroke-linecap="round" />
</g>
		<g transform="matrix(1 0 0 1 19.92 -3.17)"  >
<path style="stroke: none; stroke-width: 1; stroke-dasharray: none; stroke-linecap: butt; stroke-dashoffset: 0; stroke-linejoin: miter; stroke-miterlimit: 4; fill: rgb(219,109,55); fill-rule: nonzero; opacity: 1;" vector-effect="non-scaling-stroke"  transform=" translate(-109.42, -14.83)" d="M 113.355 26.443 C 113.967 26.59 114.649 26.520000000000003 115.10900000000001 26.103 C 115.24300000000001 25.98 115.343 25.830000000000002 115.41600000000001 25.669 C 115.46238802595752 25.566133998689068 115.54804128084231 25.48613106782287 115.65382900747537 25.446859957936002 C 115.75961673410842 25.407588848049134 115.876725888284 25.412321186564323 115.97900000000001 25.46 C 116.23900000000002 25.575 116.308 25.93 116.11800000000001 26.138 C 115.77006461403371 26.567460587193043 115.26020484376116 26.834150899961585 114.709 26.875 C 114.46171046421698 26.892824186721988 114.21315009530392 26.87258860716326 113.97200000000001 26.815 C 113.73897615909128 26.76176429644813 113.514955102049 26.67485086379113 113.307 26.557000000000002 C 113.2779625068695 26.53928138016164 113.26785926612925 26.50194331655635 113.284 26.472 C 113.29823158446204 26.4472574950423 113.32792385507659 26.435966068188883 113.355 26.445 L 113.355 26.443 z M 111.676 6.75 C 111.44959552324359 6.709244565840555 111.22004291920233 6.688497829032161 110.99 6.688 L 109.265 6.688 C 107.539 4.521 105.212 3.0849999999999995 102.613 2.7979999999999996 C 102.799 2.7899999999999996 102.985 2.784 103.174 2.784 C 106.57900000000001 2.784 109.628 4.324 111.677 6.7509999999999994 L 111.676 6.7509999999999994 z" stroke-linecap="round" />
</g>
		<g transform="matrix(1 0 0 1 16.46 13.02)"  >
<path style="stroke: none; stroke-width: 1; stroke-dasharray: none; stroke-linecap: butt; stroke-dashoffset: 0; stroke-linejoin: miter; stroke-miterlimit: 4; fill: rgb(189,94,48); fill-rule: nonzero; opacity: 1;" vector-effect="non-scaling-stroke"  transform=" translate(-105.96, -31.02)" d="M 104.322 28.609 C 104.86500000000001 29.53 105.62 30.369000000000003 106.661 31.136000000000003 C 107.593 31.808000000000003 108.672 32.246 109.794 32.473000000000006 C 109.19 32.763000000000005 108.453 33.068000000000005 107.628 33.25300000000001 C 107.1638808284289 33.36895827971344 106.68738482599571 33.428058559085 106.209 33.42900000000001 C 104.87 33.42900000000001 103.598 32.95700000000001 102.63900000000001 32.06900000000001 C 102.45423968053912 31.905748475496843 102.27989761757172 31.731072423903072 102.117 31.54600000000001 C 102.99000000000001 30.75900000000001 103.73 29.73200000000001 104.322 28.60900000000001 z" stroke-linecap="round" />
</g>
		<g transform="matrix(1 0 0 1 13.01 2.09)"  >
<path style="stroke: none; stroke-width: 1; stroke-dasharray: none; stroke-linecap: butt; stroke-dashoffset: 0; stroke-linejoin: miter; stroke-miterlimit: 4; fill: rgb(219,109,55); fill-rule: nonzero; opacity: 1;" vector-effect="non-scaling-stroke"  transform=" translate(-102.51, -20.09)" d="M 114.346 13.813 L 114.34 13.828000000000001 C 114.342 13.911000000000001 114.346 13.992 114.346 14.073 C 114.346 14.497 114.33200000000001 14.908000000000001 114.297 15.307 C 114.04574779399742 17.67494134334388 113.05403804490925 19.903313849410765 111.463 21.675000000000004 C 112.26299999999999 19.830000000000002 112.317 18.118000000000002 112.317 15.881 L 112.31599999999999 15.818 C 111.98199999999999 15.934 111.62199999999999 15.998 111.24799999999999 15.998 L 108.24 15.998 C 105.878 15.998 103.957 14.056999999999999 103.957 11.672 L 103.957 10.534 C 103.957 10.356 103.975 10.181000000000001 104.002 10.012 L 104.28999999999999 10.012 L 104.28999999999999 10.99 C 104.28999999999999 13.377 106.21 15.317 108.573 15.317 L 111.583 15.317 C 112.70778976260738 15.314379846668507 113.75329017842421 14.737317928847528 114.355 13.786999999999999 L 114.346 13.813 z M 102.045 9.854 C 102.045 9.441999999999998 101.96300000000001 9.049 101.821 8.687 C 102.68853334156111 8.469779319656334 103.60244960039873 8.531360200803126 104.43299999999999 8.862999999999998 C 104.44532371743615 8.846803053195154 104.4569995774266 8.830123253208784 104.46799999999999 8.812999999999999 C 104.35052312741158 9.147169097666499 104.29034305582358 9.498782999079522 104.28999999999999 9.852999999999998 L 104.28999999999999 10.011999999999999 L 104.002 10.011999999999999 C 103.6370954336621 9.863598791180888 103.2469266724828 9.787194986772409 102.853 9.786999999999999 C 102.57799999999999 9.786999999999999 102.306 9.826999999999998 102.044 9.901 L 102.044 9.854 L 102.045 9.854 z M 100.873 20.815 C 100.421 21.235000000000003 100.099 21.791 99.97500000000001 22.419 L 99.97300000000001 22.425 C 99.93069924188137 22.59832018170254 99.91319160064694 22.776763448130428 99.921 22.955000000000002 C 99.91915116390528 23.099839483611152 99.92851243809963 23.24460490240239 99.94900000000001 23.388 C 99.95800000000001 23.496000000000002 99.96900000000001 23.603 99.97500000000001 23.709000000000003 C 100.03584131035676 24.504844035708075 99.9988991648036 25.305145243464246 99.86500000000001 26.092 C 99.60900000000001 27.659000000000002 98.67300000000002 29.029000000000003 97.298 29.729000000000003 C 96.793 29.999000000000002 96.247 30.199 95.69500000000001 30.346000000000004 C 94.929 30.546000000000003 93.775 30.842000000000002 93.638 31.854000000000003 C 93.638 31.997000000000003 93.662 32.131 93.70100000000001 32.254000000000005 C 93.483 32.254000000000005 93.266 32.251000000000005 93.055 32.242000000000004 C 92.33200000000001 32.233000000000004 91.59800000000001 31.911000000000005 91.144 31.312000000000005 C 90.87100000000001 30.976000000000006 90.622 30.537000000000006 90.674 30.054000000000006 C 90.718 29.622000000000007 90.97900000000001 29.291000000000004 91.319 29.084000000000007 C 91.56 28.939000000000007 91.84 28.854000000000006 92.11200000000001 28.84400000000001 C 92.834 28.756000000000007 93.55000000000001 28.63000000000001 94.22000000000001 28.38600000000001 C 95.23700000000001 28.03700000000001 96.07400000000001 27.31400000000001 96.62700000000001 26.36800000000001 C 97.00300000000001 25.75300000000001 97.28500000000001 25.073000000000008 97.30300000000001 24.34400000000001 C 97.33000000000001 23.582000000000008 97.06900000000002 22.82400000000001 97.174 22.032000000000007 C 97.227 21.56200000000001 97.394 21.212000000000007 97.632 20.962000000000007 C 97.98400000000001 20.43700000000001 98.602 20.088000000000008 99.307 20.088000000000008 C 99.946 20.088000000000008 100.514 20.37600000000001 100.876 20.81800000000001 L 100.873 20.81500000000001 z M 91.996 13.815 C 92.60143352621907 14.750150348767304 93.63897425469354 15.315397419557529 94.753 15.317 L 97.761 15.317 C 99.23897640506527 15.313232838510093 100.61031997283612 14.546838184010081 101.38799999999999 13.289999999999997 C 100.75099999999999 14.876999999999999 99.21199999999999 16 97.416 16 L 94.40599999999999 16 C 93.50618015984625 15.998966030956996 92.64647471765566 15.627524091903682 92.029 14.972999999999999 C 92.00458052944865 14.673945651524061 91.99190411291576 14.374048323548413 91.991 14.074000000000002 C 91.991 13.986000000000002 91.996 13.902000000000001 91.997 13.816000000000003 L 91.997 13.815000000000003 z M 100.81 9.854 L 100.81 10.989999999999998 C 100.81 11.636 100.61200000000001 12.233999999999998 100.275 12.729999999999999 C 100.39500000000001 12.399999999999999 100.462 12.044999999999998 100.462 11.672999999999998 L 100.462 10.534999999999998 C 100.462 9.477999999999998 99.61200000000001 8.617999999999999 98.565 8.617999999999999 L 94.997 8.617999999999999 C 94.127 8.617999999999999 93.355 9.044999999999998 92.87 9.701999999999998 C 92.869 9.703999999999999 92.858 9.709999999999997 92.84700000000001 9.709999999999997 L 92.855 9.683999999999997 L 92.85600000000001 9.678999999999997 C 92.909 9.534999999999997 92.97600000000001 9.395999999999997 93.052 9.264999999999997 C 93.52321803110561 8.444697310860459 94.39598991839117 7.937803594664045 95.34200000000001 7.934999999999997 L 98.91000000000001 7.934999999999997 C 99.96408614090213 7.941058968882754 100.81398439366728 8.79990823010252 100.80900000000001 9.853999999999997 L 100.81000000000002 9.853999999999997 z M 92.522 26.52 C 92.575 26.519 92.587 26.598 92.539 26.613 C 92.059 26.817999999999998 91.57900000000001 26.871 91.134 26.517 C 90.774 26.239 91.25 25.746 91.534 26.105999999999998 C 91.65100000000001 26.273999999999997 91.736 26.386 91.91300000000001 26.447 C 92.08900000000001 26.506999999999998 92.30900000000001 26.519 92.52300000000001 26.519 L 92.52300000000001 26.52 z" stroke-linecap="round" />
</g>
		<g transform="matrix(1 0 0 1 13.67 -7)"  >
<path style="stroke: none; stroke-width: 1; stroke-dasharray: none; stroke-linecap: butt; stroke-dashoffset: 0; stroke-linejoin: miter; stroke-miterlimit: 4; fill: rgb(30,1,74); fill-rule: nonzero; opacity: 1;" vector-effect="non-scaling-stroke"  transform=" translate(-103.17, -11)" d="M 115.455 8.566 L 114.313 8.566 C 113.61203988403618 7.402300790063645 112.35350545497593 6.689965751553952 110.995 6.688000000000001 L 107.427 6.688000000000001 C 106.32638141704156 6.689772960591661 105.30806439622961 7.271125588144753 104.747 8.218 C 103.73502368481786 7.824812582119041 102.61169021781632 7.829457408795574 101.603 8.231000000000002 C 101.04344177723175 7.276973010177389 100.02101475210029 6.690066425438607 98.91499999999999 6.688 L 95.347 6.688 C 93.9888070928007 6.691147950965517 92.7308127911913 7.40317727538458 92.029 8.566 L 90.887 8.565999999999999 C 90.55380966863088 8.568202460444754 90.28533776568878 8.83980653558784 90.287 9.172999999999998 L 90.287 9.715999999999998 C 90.287 9.929999999999998 90.399 10.128999999999998 90.581 10.237999999999998 L 91.455 10.757999999999997 L 91.455 11.983999999999998 C 91.455 13.822 92.935 15.315999999999999 94.753 15.315999999999999 L 97.763 15.315999999999999 C 100.125 15.315999999999999 102.045 13.376 102.045 10.988999999999999 L 102.045 9.852 C 102.045 9.695 102.033 9.541 102.011 9.389000000000001 C 102.38403564135277 9.234054720521533 102.78406510005418 9.154524649717688 103.188 9.155000000000001 C 103.595 9.155000000000001 103.968 9.23 104.32900000000001 9.374 C 104.30488418706005 9.532188549624479 104.29284939426266 9.691983853989786 104.293 9.852 L 104.293 10.989 C 104.293 13.376000000000001 106.21300000000001 15.316 108.575 15.316 L 111.584 15.316 C 113.404 15.316 114.884 13.821000000000002 114.884 11.984000000000002 L 114.884 10.76 L 115.758 10.24 C 115.941713341266 10.129917536599534 116.0538185383271 9.931168322826789 116.053 9.717 L 116.053 9.174000000000001 C 116.05379762843634 9.013808644203872 115.99092579883228 8.85986166537055 115.8782160091758 8.746026653188375 C 115.76550621951931 8.632191641006202 115.61219137542486 8.567793676520058 115.452 8.567000000000002 L 115.455 8.567000000000002 z M 100.818 10.99 C 100.818 12.688 99.449 14.072 97.768 14.072 L 94.758 14.072 C 93.61999999999999 14.072 92.69399999999999 13.136 92.69399999999999 11.985999999999999 L 92.69399999999999 10.62 C 92.69399999999999 9.139 93.88599999999998 7.935999999999999 95.35099999999998 7.935999999999999 L 98.91899999999998 7.935999999999999 C 99.96599999999998 7.935999999999999 100.81799999999998 8.796 100.81799999999998 9.854 L 100.81799999999998 10.989999999999998 z M 113.654 11.984 C 113.654 13.134 112.72699999999999 14.071 111.589 14.071 L 108.58 14.071 C 106.89999999999999 14.071 105.53 12.687999999999999 105.53 10.989 L 105.53 9.852 C 105.53 8.795 106.383 7.934 107.428 7.934 L 110.996 7.934 C 112.463 7.934 113.654 9.139 113.654 10.619 L 113.654 11.984 z" stroke-linecap="round" />
</g>
		<g transform="matrix(1 0 0 1 18.95 -6.78)"  >
<path style="stroke: none; stroke-width: 1; stroke-dasharray: none; stroke-linecap: butt; stroke-dashoffset: 0; stroke-linejoin: miter; stroke-miterlimit: 4; fill: rgb(30,1,74); fill-rule: nonzero; opacity: 1;" vector-effect="non-scaling-stroke"  transform=" translate(-108.45, -11.22)" d="M 108.454 12.556 C 108.80673945491773 12.55414836227606 109.14429550807736 12.412244841158968 109.39240719026022 12.161507638529745 C 109.64051887244305 11.910770435900522 109.77886140889925 11.571739403490504 109.77699999999999 11.219 C 109.77886140889925 10.866260596509495 109.64051887244305 10.527229564099477 109.39240719026022 10.276492361470254 C 109.14429550807736 10.025755158841031 108.80673945491773 9.88385163772394 108.454 9.882 C 108.10126054508225 9.88385163772394 107.76370449192262 10.025755158841031 107.51559280973977 10.276492361470254 C 107.26748112755693 10.527229564099477 107.12913859110074 10.866260596509495 107.131 11.219 C 107.12913859110074 11.571739403490504 107.26748112755693 11.910770435900522 107.51559280973977 12.161507638529745 C 107.76370449192262 12.412244841158968 108.10126054508225 12.55414836227606 108.454 12.556 z" stroke-linecap="round" />
</g>
		<g transform="matrix(1 0 0 1 18.47 -7.24)"  >
<path style="stroke: none; stroke-width: 1; stroke-dasharray: none; stroke-linecap: butt; stroke-dashoffset: 0; stroke-linejoin: miter; stroke-miterlimit: 4; fill: rgb(255,255,255); fill-rule: nonzero; opacity: 1;" vector-effect="non-scaling-stroke"  transform=" translate(-107.97, -10.76)" d="M 107.966 11.252 C 108.0961305745353 11.251471295969294 108.22070618671124 11.19920069024069 108.31225297299596 11.106715924588297 C 108.40379975928067 11.014231158935903 108.45479779840323 10.889129203004348 108.454 10.759 C 108.45506479162917 10.628698175604292 108.40418487030895 10.503338715138327 108.31260917556699 10.410637089723297 C 108.22103348082501 10.317935464308267 108.09630510716687 10.26552751141499 107.966 10.265 C 107.83569489283312 10.26552751141499 107.71096651917497 10.317935464308267 107.619390824433 10.410637089723297 C 107.52781512969104 10.503338715138327 107.47693520837082 10.628698175604292 107.478 10.759 C 107.47720220159675 10.889129203004348 107.52820024071931 11.014231158935903 107.61974702700402 11.106715924588297 C 107.71129381328875 11.19920069024069 107.8358694254647 11.251471295969294 107.966 11.252 z" stroke-linecap="round" />
</g>
		<g transform="matrix(1 0 0 1 8.26 -6.83)"  >
<path style="stroke: none; stroke-width: 1; stroke-dasharray: none; stroke-linecap: butt; stroke-dashoffset: 0; stroke-linejoin: miter; stroke-miterlimit: 4; fill: rgb(30,1,74); fill-rule: nonzero; opacity: 1;" vector-effect="non-scaling-stroke"  transform=" translate(-97.76, -11.17)" d="M 97.758 12.51 C 98.11073945491773 12.50814836227606 98.44829550807736 12.366244841158968 98.69640719026022 12.115507638529746 C 98.94451887244306 11.864770435900523 99.08286140889925 11.525739403490505 99.08099999999999 11.173 C 99.08286140889925 10.820260596509495 98.94451887244306 10.481229564099477 98.69640719026022 10.230492361470255 C 98.44829550807736 9.979755158841032 98.11073945491773 9.83785163772394 97.758 9.836 C 97.40526054508226 9.83785163772394 97.06770449192263 9.979755158841032 96.81959280973977 10.230492361470255 C 96.57148112755694 10.481229564099477 96.43313859110074 10.820260596509495 96.435 11.173 C 96.43313859110074 11.525739403490505 96.57148112755694 11.864770435900523 96.81959280973977 12.115507638529746 C 97.06770449192263 12.366244841158968 97.40526054508226 12.50814836227606 97.758 12.51 z" stroke-linecap="round" />
</g>
		<g transform="matrix(1 0 0 1 7.77 -7.29)"  >
<path style="stroke: none; stroke-width: 1; stroke-dasharray: none; stroke-linecap: butt; stroke-dashoffset: 0; stroke-linejoin: miter; stroke-miterlimit: 4; fill: rgb(255,255,255); fill-rule: nonzero; opacity: 1;" vector-effect="non-scaling-stroke"  transform=" translate(-97.27, -10.71)" d="M 97.269 11.205 C 97.3991305745353 11.204471295969293 97.52370618671125 11.15220069024069 97.61525297299598 11.059715924588296 C 97.70679975928068 10.967231158935903 97.75779779840325 10.842129203004347 97.757 10.712 C 97.75806479162918 10.581698175604291 97.70718487030896 10.456338715138326 97.615609175567 10.363637089723296 C 97.52403348082503 10.270935464308266 97.39930510716688 10.21852751141499 97.269 10.218 C 97.13860421150507 10.218528707552988 97.0137742482007 10.270904670571326 96.92203992612161 10.363576971403782 C 96.83030560404252 10.456249272236239 96.77920220598489 10.58160558020528 96.78 10.712 C 96.77920195152875 10.842301962728286 96.83033698400352 10.967555454414475 96.92210004011281 11.060069128569648 C 97.01386309622211 11.15258280272482 97.13869585981773 11.204736516483843 97.269 11.205 z" stroke-linecap="round" />
</g>
		<g transform="matrix(1 0 0 1 0.36 -0.29)"  >
<path style="stroke: none; stroke-width: 1; stroke-dasharray: none; stroke-linecap: butt; stroke-dashoffset: 0; stroke-linejoin: miter; stroke-miterlimit: 4; fill: rgb(31,0,74); fill-rule: nonzero; opacity: 1;" vector-effect="non-scaling-stroke"  transform=" translate(-89.86, -17.71)" d="M 5.987 27.907 C 4.293 27.907 3 27.427 2.107 26.469 C 1.2270000000000003 25.497 0.7870000000000001 24.026 0.7870000000000001 22.055 L 0.7870000000000001 1.625 C 0.786 0.843 1.5 0.451 2.926 0.451 L 3.926 0.451 C 4.659 0.451 5.192 0.552 5.526 0.755 C 5.872 0.944 6.045999999999999 1.234 6.045999999999999 1.625 L 6.045999999999999 22.116 C 6.045999999999999 22.669 6.145999999999999 23.067999999999998 6.345999999999999 23.311 C 6.545999999999999 23.554 6.879 23.675 7.345999999999999 23.675 C 7.465999999999999 23.675 7.645999999999999 23.648 7.885999999999999 23.595000000000002 L 8.085999999999999 23.554000000000002 C 8.152 23.540000000000003 8.225999999999999 23.534000000000002 8.306 23.534000000000002 C 8.505999999999998 23.534000000000002 8.686 23.716 8.846 24.080000000000002 C 9.019 24.431 9.153 24.830000000000002 9.246 25.275000000000002 C 9.339 25.707 9.386000000000001 25.990000000000002 9.386000000000001 26.125000000000004 C 9.386000000000001 27.313000000000002 8.252 27.907000000000004 5.986000000000001 27.907000000000004 z M 20.312 27.907 C 17.192 27.907 14.865000000000002 27.063 13.332 25.376 C 11.798 23.676000000000002 11.031 21.32 11.031 18.309 C 11.031 14.921000000000001 11.798 12.438 13.331 10.859000000000002 C 14.865 9.279000000000002 16.977999999999998 8.489 19.671 8.489 C 21.459 8.489 22.919 8.901000000000002 24.052 9.725000000000001 C 25.198999999999998 10.548000000000002 26.032 11.655000000000001 26.552 13.045000000000002 C 27.086 14.435000000000002 27.352 16.008000000000003 27.352 17.763 C 27.352 17.965000000000003 27.232 18.235000000000003 26.992 18.573 C 26.7687448248907 18.90599270244541 26.506930232105805 19.211443060694453 26.212 19.483 C 25.919 19.753 25.692 19.889 25.532 19.889 L 16.472 19.889 C 16.592000000000002 21.266 16.992 22.244 17.672 22.825 C 18.365000000000002 23.392 19.325 23.675 20.552 23.675 C 21.219 23.675 21.819 23.601 22.352 23.452 C 22.94283014125483 23.274372298230666 23.52367043831465 23.065069501531525 24.092000000000006 22.825 C 24.465999999999998 22.649000000000004 24.718999999999998 22.561000000000003 24.852 22.561000000000003 C 25.092 22.561000000000003 25.352 22.737000000000002 25.632 23.088000000000005 C 25.926000000000002 23.425000000000004 26.172 23.817000000000004 26.372 24.262000000000004 C 26.586 24.708000000000006 26.692 25.052000000000003 26.692 25.295000000000005 C 26.692 25.848000000000006 26.319 26.321000000000005 25.572 26.712000000000007 C 24.839 27.104000000000006 23.965 27.401000000000007 22.951999999999998 27.60300000000001 C 21.951999999999998 27.806000000000008 21.072 27.907000000000007 20.311999999999998 27.907000000000007 z M 22.232 16.346 C 22.232 15.239 22.019 14.354 21.592 13.693 C 21.165 13.017999999999999 20.525 12.681 19.671999999999997 12.681 C 17.911999999999995 12.681 16.845 13.902 16.471999999999998 16.346 L 22.232 16.346 z M 35.493 27.907 C 33.68 27.907 32.346000000000004 27.427 31.493000000000002 26.469 C 30.653000000000002 25.497 30.233 24.215 30.233 22.622 C 30.233 21.421 30.479 20.341 30.973 19.381999999999998 C 31.465999999999998 18.410999999999998 32.466 17.593999999999998 33.973 16.932 C 35.48 16.272 37.632999999999996 15.940999999999999 40.433 15.940999999999999 L 40.433 14.745999999999999 C 40.433 14.043999999999999 40.213 13.524 39.773 13.185999999999998 C 39.333000000000006 12.848999999999998 38.633 12.680999999999997 37.673 12.680999999999997 C 36.873000000000005 12.680999999999997 36.187000000000005 12.767999999999997 35.613 12.943999999999997 C 35.04 13.105999999999998 34.42 13.328999999999997 33.753 13.611999999999997 C 33.406 13.773999999999997 33.193 13.854999999999997 33.113 13.854999999999997 C 32.873 13.854999999999997 32.606 13.672999999999996 32.313 13.307999999999996 C 32.018763664265 12.919601983386112 31.770446420736636 12.49846936091571 31.573000000000004 12.052999999999997 C 31.360000000000003 11.579999999999997 31.253000000000004 11.222999999999997 31.253000000000004 10.979999999999997 C 31.253000000000004 10.560999999999996 31.546000000000003 10.162999999999997 32.133 9.784999999999997 C 32.733000000000004 9.393999999999997 33.553000000000004 9.082999999999997 34.593 8.853999999999996 C 35.633 8.610999999999995 36.787000000000006 8.488999999999995 38.053000000000004 8.488999999999995 C 40.720000000000006 8.488999999999995 42.661 9.028999999999996 43.874 10.108999999999995 C 45.087 11.175999999999995 45.694 12.639999999999995 45.694 14.502999999999995 L 45.694 21.244999999999994 C 45.694 22.364999999999995 45.721000000000004 23.235999999999994 45.774 23.856999999999992 C 45.841 24.47799999999999 45.928000000000004 25.092999999999993 46.034 25.699999999999992 C 46.101 26.063999999999993 46.134 26.319999999999993 46.134 26.46999999999999 C 46.134 26.73999999999999 45.881 26.961999999999993 45.374 27.13799999999999 C 44.82272121143722 27.326514161486966 44.252783831975684 27.455252957788865 43.674 27.52199999999999 C 43.034 27.60299999999999 42.519999999999996 27.64399999999999 42.134 27.64399999999999 C 41.72 27.64399999999999 41.42 27.467999999999993 41.234 27.11699999999999 C 41.06 26.75299999999999 40.92 26.25999999999999 40.814 25.63899999999999 L 40.774 25.39599999999999 C 40.76029673858749 25.31357385228055 40.74023688048391 25.23233142696106 40.714 25.15299999999999 C 40.58 25.409999999999993 40.294 25.752999999999993 39.854 26.185999999999993 C 39.427 26.61799999999999 38.839999999999996 27.01599999999999 38.094 27.380999999999993 C 37.347 27.730999999999995 36.480000000000004 27.906999999999993 35.494 27.906999999999993 z M 37.233000000000004 23.675 C 37.900000000000006 23.675 38.527 23.465 39.11300000000001 23.047 C 39.690270409683166 22.626665592594104 40.1457506050874 22.060765955879752 40.43300000000001 21.407 L 40.43300000000001 19.423000000000002 C 37.11300000000001 19.423000000000002 35.453 20.307000000000002 35.453 22.076 C 35.453 22.548000000000002 35.607000000000006 22.933 35.913000000000004 23.23 C 36.233000000000004 23.527 36.673 23.675 37.233000000000004 23.675 z M 52.475 27.664 C 51.061 27.664 50.355000000000004 27.286 50.355000000000004 26.53 L 50.355000000000004 15.11 C 50.355000000000004 13.383 50.24100000000001 11.945 50.015 10.797999999999998 C 49.948 10.432999999999998 49.915 10.176999999999998 49.915 10.027999999999999 C 49.915 9.758 50.161 9.541999999999998 50.655 9.379999999999999 C 51.20709626558277 9.194388373483099 51.77672566773745 9.065719143819923 52.355000000000004 8.995999999999999 C 52.995000000000005 8.915 53.508 8.873999999999999 53.895 8.873999999999999 C 54.308 8.873999999999999 54.595000000000006 9.028999999999998 54.755 9.339999999999998 C 54.928000000000004 9.649999999999999 55.082 10.101999999999999 55.215 10.695999999999998 L 55.335 11.222999999999997 C 55.788000000000004 10.385999999999997 56.308 9.724999999999998 56.895 9.238999999999997 C 57.495000000000005 8.738999999999997 58.262 8.488999999999997 59.195 8.488999999999997 C 59.969 8.488999999999997 60.502 8.691999999999997 60.795 9.096999999999998 C 61.089 9.487999999999998 61.235 9.933999999999997 61.235 10.432999999999998 C 61.235 10.702999999999998 61.189 11.087999999999997 61.095 11.586999999999998 C 61.01400258108438 12.033448684895008 60.87970866895932 12.4685609601802 60.695 12.882999999999997 C 60.522 13.260999999999997 60.329 13.449999999999998 60.115 13.449999999999998 C 59.969 13.449999999999998 59.749 13.409999999999998 59.455000000000005 13.328999999999997 C 59.05500000000001 13.220999999999997 58.715 13.166999999999996 58.435 13.166999999999996 C 57.814211409322176 13.156089453470823 57.20799927972436 13.355575537978012 56.715 13.732999999999997 C 56.23500000000001 14.097999999999997 55.868 14.509999999999996 55.615 14.968999999999998 L 55.615 26.53 C 55.615 27.286 54.895 27.664 53.455 27.664 L 52.475 27.664 z M 65.476 27.664 C 64.062 27.664 63.356 27.286 63.356 26.53 L 63.356 15.11 C 63.356 13.383 63.242000000000004 11.945 63.016 10.797999999999998 C 62.949 10.432999999999998 62.916 10.176999999999998 62.916 10.027999999999999 C 62.916 9.758 63.162 9.541999999999998 63.656 9.379999999999999 C 64.20809437677283 9.194381633781033 64.7777244762105 9.065712246613938 65.35599999999998 8.996 C 65.996 8.915 66.509 8.873999999999999 66.896 8.873999999999999 C 67.309 8.873999999999999 67.596 9.028999999999998 67.756 9.339999999999998 C 67.929 9.649999999999999 68.083 10.101999999999999 68.216 10.695999999999998 L 68.336 11.222999999999997 C 68.896 10.466999999999997 69.643 9.825999999999997 70.576 9.298999999999998 C 71.523 8.758999999999997 72.53599999999999 8.488999999999997 73.616 8.488999999999997 C 75.403 8.488999999999997 76.724 8.961999999999998 77.577 9.906999999999996 C 78.42999999999999 10.851999999999997 78.857 12.316999999999997 78.857 14.299999999999997 L 78.857 26.529999999999998 C 78.857 27.285999999999998 78.137 27.663999999999998 76.697 27.663999999999998 L 75.717 27.663999999999998 C 74.303 27.663999999999998 73.597 27.285999999999998 73.597 26.529999999999998 L 73.597 15.11 C 73.597 14.382 73.42299999999999 13.828 73.077 13.45 C 72.743 13.072 72.197 12.883 71.437 12.883 C 70.797 12.883 70.23 13.098999999999998 69.737 13.530999999999999 C 69.26978948876882 13.929208033634623 68.88869174636277 14.418510313616688 68.61699999999999 14.969000000000001 L 68.61699999999999 26.53 C 68.61699999999999 27.286 67.89699999999999 27.664 66.45599999999999 27.664 L 65.47599999999998 27.664 z M 129.094 27.591 C 127.6 27.591 126.854 27.375 126.854 26.943 C 126.854 26.849 126.894 26.727 126.974 26.579 C 127.06236896100873 26.40074035605891 127.15573928691293 26.225004064089227 127.254 26.052000000000003 L 132.614 17.994 L 127.554 10.219 C 127.3 9.786999999999999 127.174 9.475999999999999 127.174 9.286999999999999 C 127.174 8.854999999999999 127.92 8.639 129.41400000000002 8.639 L 130.554 8.639 C 131.181 8.639 131.654 8.68 131.974 8.761 C 132.29399999999998 8.841 132.541 9.030999999999999 132.714 9.328 L 134.894 12.870999999999999 L 135.41400000000002 13.740999999999998 L 136.03400000000002 12.810999999999998 L 138.235 9.327999999999998 C 138.3915263540487 9.043836080689085 138.65989841090013 8.838205058750228 138.97500000000002 8.760999999999997 C 139.29500000000002 8.679999999999998 139.76800000000003 8.638999999999998 140.395 8.638999999999998 L 141.435 8.638999999999998 C 142.928 8.638999999999998 143.675 8.854999999999997 143.675 9.286999999999997 C 143.675 9.448999999999998 143.548 9.746999999999998 143.29500000000002 10.177999999999997 L 138.09500000000003 17.952999999999996 L 143.35500000000002 26.011999999999993 C 143.608 26.416999999999994 143.735 26.726999999999993 143.735 26.942999999999994 C 143.735 27.374999999999993 142.995 27.590999999999994 141.51500000000001 27.590999999999994 L 140.35500000000002 27.590999999999994 C 139.741 27.590999999999994 139.275 27.550999999999995 138.955 27.469999999999995 C 138.63607019126496 27.390166685093252 138.3623749499373 27.185975630050123 138.19500000000002 26.902999999999995 L 135.75400000000002 22.954999999999995 C 135.68061464864988 22.829110498740153 135.6004984851297 22.70726716671987 135.514 22.589999999999996 L 135.274 22.204999999999995 C 135.1977040502322 22.324856210740183 135.12434881489784 22.446559214817636 135.054 22.57 C 134.974679429162 22.694818164935022 134.90126520613396 22.823293055234085 134.834 22.954999999999995 L 132.334 26.902999999999995 C 132.147 27.199999999999996 131.894 27.388999999999996 131.574 27.469999999999995 C 131.25400000000002 27.549999999999994 130.781 27.590999999999994 130.15400000000002 27.590999999999994 L 129.09400000000002 27.590999999999994 z M 150.804 34.962 C 149.377 34.962 148.663 34.705000000000005 148.663 34.192 C 148.663 33.99 148.71 33.774 148.803 33.544 L 151.064 27.531 L 145.183 10.076999999999998 C 145.16291962793716 9.967479496705757 145.1362037434843 9.859280164671652 145.10299999999998 9.752999999999998 C 145.07049469463914 9.647694277136333 145.05035916472033 9.538962415574863 145.04299999999998 9.428999999999998 C 145.04299999999998 9.158999999999999 145.21599999999998 8.963 145.563 8.841999999999999 C 145.91 8.706999999999999 146.457 8.639 147.20299999999997 8.639 L 148.36299999999997 8.639 C 148.92299999999997 8.639 149.36999999999998 8.7 149.70399999999998 8.822 C 150.04999999999998 8.93 150.26399999999998 9.119 150.34399999999997 9.389 L 152.42399999999998 16.029 C 152.557 16.449 152.724 17.123 152.92399999999998 18.055 C 153.12399999999997 18.973 153.24399999999997 19.519 153.284 19.695 L 153.42399999999998 20.383 L 153.58399999999997 20.383 C 153.59699999999998 20.288999999999998 153.63099999999997 20.147 153.68399999999997 19.958 C 154.12399999999997 17.798 154.42399999999998 16.488 154.58399999999997 16.029999999999998 L 156.664 9.388999999999998 C 156.75799999999998 9.104999999999997 156.97099999999998 8.908999999999997 157.30399999999997 8.800999999999998 C 157.65099999999998 8.692999999999998 158.10399999999998 8.638999999999998 158.664 8.638999999999998 L 159.524 8.638999999999998 C 160.258 8.638999999999998 160.791 8.706999999999997 161.125 8.841999999999997 C 161.471 8.962999999999997 161.645 9.158999999999997 161.645 9.428999999999997 C 161.645 9.563999999999997 161.61100000000002 9.779999999999998 161.54500000000002 10.076999999999996 L 153.38400000000001 34.19199999999999 C 153.211 34.70499999999999 152.55 34.961999999999996 151.40400000000002 34.961999999999996 L 150.80400000000003 34.961999999999996 z M 164.573 27.53 C 164.42600000000002 27.53 164.273 27.375 164.113 27.065 C 163.953 26.741 163.813 26.363 163.693 25.931 C 163.59630572204676 25.560396569206997 163.54261862061716 25.179889237824554 163.53300000000002 24.797 C 163.53300000000002 24.567 163.566 24.399 163.633 24.291 L 171.794 12.911 L 165.173 12.911 C 164.8 12.911 164.526 12.77 164.353 12.485999999999999 C 164.193 12.203 164.113 11.744 164.113 11.11 L 164.113 10.501999999999999 C 164.113 9.867999999999999 164.193 9.408999999999999 164.353 9.124999999999998 C 164.526 8.841999999999999 164.8 8.699999999999998 165.173 8.699999999999998 L 177.754 8.699999999999998 C 177.874 8.699999999999998 178.01399999999998 8.861999999999998 178.17399999999998 9.185999999999998 C 178.34699999999998 9.495999999999999 178.49399999999997 9.874999999999998 178.61399999999998 10.319999999999999 C 178.73399999999998 10.764999999999999 178.79399999999998 11.149999999999999 178.79399999999998 11.473999999999998 C 178.79399999999998 11.730999999999998 178.754 11.912999999999998 178.67399999999998 12.020999999999999 L 170.593 23.319 L 177.85399999999998 23.319 C 178.22699999999998 23.319 178.50099999999998 23.461 178.67399999999998 23.744 C 178.84699999999998 24.028 178.93399999999997 24.487 178.93399999999997 25.121 L 178.93399999999997 25.729 C 178.93399999999997 26.363 178.84699999999998 26.822 178.67399999999998 27.105 C 178.50099999999998 27.389 178.22699999999998 27.531 177.85399999999998 27.531 L 164.57299999999998 27.531 z" stroke-linecap="round" />
</g>
</g>
</g>
</svg>